<?xml version="1.0" encoding="utf-8"?>
<!-- Generator: Adobe Illustrator 26.5.0, SVG Export Plug-In . SVG Version: 6.00 Build 0)  -->
<svg version="1.1" id="Layer_1" xmlns="http://www.w3.org/2000/svg" xmlns:xlink="http://www.w3.org/1999/xlink" x="0px" y="0px"
	 viewBox="0 0 805 600" style="enable-background:new 0 0 805 600;" xml:space="preserve">
<style type="text/css">
	.st0{fill:#FFFFFF;}
	.st1{fill:#9E0142;}
	.st2{fill:#F0F8A9;}
	.st3{fill:#D6424B;}
	.st4{fill:#F47D4D;}
	.st5{fill:#FDBE70;}
	.st6{fill:#77C6A7;}
	.st7{fill:#FEEDA1;}
	.st8{fill:#438FB4;}
	.st9{fill:#5E4FA2;}
	.st10{fill:#BEE5A0;}
	.st11{font-family:'Arial-BoldMT';}
	.st12{font-size:10px;}
	.st13{font-family:'ArialMT';}
	.st14{font-family:'Arial-ItalicMT';}
	.st15{font-size:9.1008px;}
	.st16{font-size:9.9994px;}
	.st17{font-size:11px;}
</style>
<rect id="backgorund" class="st0" width="805" height="600"/>
<g id="viz" transform="translate(402.5,300)">
	<path class="st1" d="M1-288c151.3,0.5,276.3,118,286.4,268.9l-142.7,9C139.4-85.7,76.8-144.5,1-145V-288z"/>
	<path class="st2" d="M287.5-17.1c0.7,11.4,0.7,22.8,0,34.2l-142.7-9c0.3-5.4,0.3-10.8,0-16.2L287.5-17.1z"/>
	<path class="st3" d="M287.4,19.1c-6.9,104.1-69.6,196.3-163.8,241.1l-61-129.4c47.1-22.5,78.4-68.6,82-120.7L287.4,19.1z"/>
	<path class="st4" d="M121.7,261c-10.3,4.8-20.9,9-31.8,12.6l-44.2-136c5.1-1.7,10.2-3.7,15.1-6L121.7,261z"/>
	<path class="st5" d="M88,274.2c-45.5,14.6-94,17.7-141,8.9l26.8-140.5c23.4,4.3,47.4,2.8,70-4.4L88,274.2z"/>
	<path class="st6" d="M-54.9,282.7C-151,264-231.1,197.8-267.4,106.9l133-52.6c18.3,45.4,58.3,78.4,106.3,87.9L-54.9,282.7z"/>
	<path class="st7" d="M-268.1,105.1c-47.7-121.7-7.4-260.3,98.1-337.5l84,115.7c-52.7,38.8-72.8,108.1-49.1,169.2L-268.1,105.1z"/>
	<path class="st8" d="M-168.5-233.6c14.1-10.2,29.2-19.1,44.9-26.6l60.9,129.4c-7.6,3.7-14.9,8-21.8,12.9L-168.5-233.6z"/>
	<path class="st9" d="M-121.7-261c26.8-12.5,55.3-20.8,84.6-24.6l17.9,141.9c-14.4,1.9-28.5,6-41.7,12.1L-121.7-261z"/>
	<path class="st10" d="M-35.1-285.9c11.3-1.4,22.7-2.1,34.1-2.1v143c-5.4,0-10.8,0.4-16.2,1L-35.1-285.9z"/>
</g>
<text transform="matrix(0.6845 -0.729 0.729 0.6845 514.5506 168.9919)" class="st11 st12">Femalesterilisation</text>
<text transform="matrix(0.6845 -0.729 0.729 0.6845 548.5943 150.2688)" class="st13 st12">219 million</text>
<text transform="matrix(0.6845 -0.729 0.729 0.6845 559.2454 156.4563)" class="st14 st12">24%</text>
<text transform="matrix(1 0 0 1 563.8086 304)" class="st11 st12">Malesterilisation</text>
<text transform="matrix(1 0 0 1 648 296.8398)" class="st13 st12">16 million</text>
<text transform="matrix(1 0 0 1 674 310.1024)" class="st14 st12">2%</text>
<text transform="matrix(0.8271 0.5621 -0.5621 0.8271 547.2735 380.0001)" class="st11 st12">IUD</text>
<text transform="matrix(0.8271 0.5621 -0.5621 0.8271 573.2418 420.8724)" class="st13 st12">159 million</text>
<text transform="matrix(0.8271 0.5621 -0.5621 0.8271 568.7969 432.3602)" class="st14 st12">17%</text>
<text transform="matrix(0.3681 0.9298 -0.9298 0.3681 465.1419 458.4273)" class="st11 st12">Implant</text>
<text transform="matrix(0.3681 0.9298 -0.9298 0.3681 490.5453 515.2997)" class="st13 st12">23 million</text>
<text transform="matrix(0.3681 0.9298 -0.9298 0.3681 486.2386 535.0002)" class="st14 st12">2%</text>
<text transform="matrix(0.9818 -0.19 0.19 0.9818 395.9906 476.5643)" class="st11 st12">Injectable</text>
<text transform="matrix(0.9921 -0.1253 0.1253 0.9921 395.7174 559.1929)" class="st13 st12">74 million</text>
<text transform="matrix(1.291 -0.3137 0.2713 0.9625 401.8038 572.8553)" class="st14 st15">8%</text>
<text transform="matrix(0.6374 -0.7705 0.7705 0.6374 252.9139 468.2681)" class="st11 st12">Pill</text>
<text transform="matrix(0.6374 -0.7705 0.7705 0.6374 261.6246 476.564)" class="st13 st12">151 million</text>
<text transform="matrix(0.6374 -0.7705 0.7705 0.6374 272.6434 482.0708)" class="st14 st12">16 %</text>
<text transform="matrix(0.9603 0.279 -0.279 0.9603 190.6909 223.1114)" class="st11 st12">Male condom</text>
<text transform="matrix(0.9603 0.279 -0.279 0.9603 184.509 240.8333)" class="st13 st12">189 million</text>
<text transform="matrix(0.9603 0.279 -0.279 0.9603 183.8315 253.1327)" class="st14 st12">21%</text>
<text transform="matrix(0.509 0.8607 -0.8607 0.509 296.2129 125.0744)" class="st11 st16">Rhythm</text>
<text transform="matrix(0.509 0.8607 -0.8607 0.509 266.2136 53.9302)" class="st13 st16">29 million</text>
<text transform="matrix(0.509 0.8607 -0.8607 0.509 257.9996 69.119)" class="st14 st16">3%</text>
<text transform="matrix(0.279 0.9603 -0.9603 0.279 349.516 100.2119)" class="st11 st12">Withdrawal</text>
<text transform="matrix(0.279 0.9603 -0.9603 0.279 336.4261 31.0001)" class="st13 st12">47 million</text>
<text transform="matrix(0.279 0.9603 -0.9603 0.279 325.679 39.8371)" class="st14 st12">5 %</text>
<text transform="matrix(6.279062e-02 0.998 -0.998 6.279062e-02 389.2849 104)" class="st11 st12">Other</text>
<text transform="matrix(6.279062e-02 0.998 -0.998 6.279062e-02 389.2849 22.7397)" class="st13 st12">15 million</text>
<text transform="matrix(6.279062e-02 0.998 -0.998 6.279062e-02 374.3484 30.9999)" class="st14 st12">2%</text>
<text transform="matrix(1 0 0 1 272.6433 296.9599)" class="st11 st17">Estimated numbers of women of reproductive age </text>
<text transform="matrix(1 0 0 1 272.6433 310.1599)" class="st11 st17">(15-49 years) using various contraceptive methods, </text>
<text transform="matrix(1 0 0 1 272.6433 323.3599)" class="st11 st17">worldwide, 2019</text>
</svg>
