<?xml version="1.0" encoding="utf-8"?>
<!-- Generator: Adobe Illustrator 26.5.0, SVG Export Plug-In . SVG Version: 6.00 Build 0)  -->
<svg version="1.1" id="Layer_1" xmlns="http://www.w3.org/2000/svg" xmlns:xlink="http://www.w3.org/1999/xlink" x="0px" y="0px"
	 viewBox="0 0 805 600" style="enable-background:new 0 0 805 600;" xml:space="preserve">
<style type="text/css">
	.st0{fill:#FFFFFF;}
	.st1{fill:none;stroke:#CCCCCC;}
	.st2{font-family:'ArialMT';}
	.st3{font-size:10px;}
	.st4{fill:#F5A623;}
	.st5{font-family:'Arial-BoldMT';}
	.st6{font-size:15px;}
</style>
<rect id="backgorund" class="st0" width="805" height="600"/>
<path class="st1" d="M10,414.4c107.5,0,107.5-136.2,215-136.2"/>
<path class="st1" d="M10,414.4c107.5,0,107.5,136.2,215,136.2"/>
<path class="st1" d="M225,278.2c107.5,0,107.5-212.1,215-212.1"/>
<path class="st1" d="M225,278.2c107.5,0,107.5-24.4,215-24.4"/>
<path class="st1" d="M225,278.2c107.5,0,107.5,149.8,215,149.8"/>
<path class="st1" d="M225,278.2c107.5,0,107.5,212.1,215,212.1"/>
<path class="st1" d="M225,550.7c107.5,0,107.5,0,215,0"/>
<path class="st1" d="M440,66.1c107.5,0,107.5-37,215-37"/>
<path class="st1" d="M440,66.1c107.5,0,107.5,0,215,0"/>
<path class="st1" d="M440,66.1c107.5,0,107.5,37,215,37"/>
<path class="st1" d="M440,253.8c107.5,0,107.5-112.9,215-112.9"/>
<path class="st1" d="M440,253.8c107.5,0,107.5-73.1,215-73.1"/>
<path class="st1" d="M440,253.8c107.5,0,107.5-33.7,215-33.7"/>
<path class="st1" d="M440,253.8c107.5,0,107.5,4.6,215,4.6"/>
<path class="st1" d="M440,253.8c107.5,0,107.5,42,215,42"/>
<path class="st1" d="M440,253.8c107.5,0,107.5,77,215,77"/>
<path class="st1" d="M440,253.8c107.5,0,107.5,112.9,215,112.9"/>
<path class="st1" d="M440,428c107.5,0,107.5-21.2,215-21.2"/>
<path class="st1" d="M440,428c107.5,0,107.5,21.2,215,21.2"/>
<path class="st1" d="M440,490.3c107.5,0,107.5,0,215,0"/>
<path class="st1" d="M440,550.7c107.5,0,107.5-20.2,215-20.2"/>
<path class="st1" d="M440,550.7c107.5,0,107.5,20.2,215,20.2"/>
<text transform="matrix(1 0 0 1 140.8525 272.7057)" class="st2 st3">Combination pills</text>
<text transform="matrix(1 0 0 1 133.0742 545.1103)" class="st2 st3">Progestin-only pills</text>
<text transform="matrix(1 0 0 1 330.6279 60.5583)" class="st2 st3">Ethinyl estradiol, 20 μg</text>
<text transform="matrix(1 0 0 1 316.1748 248.2852)" class="st2 st3">Ethinyl estradiol, 30-40 μg</text>
<text transform="matrix(1 0 0 1 330.6279 422.4592)" class="st2 st3">Ethinyl estradiol, 50 μg</text>
<text transform="matrix(1 0 0 1 358.0693 484.7486)" class="st2 st3">Natural estrogen</text>
<text transform="matrix(1 0 0 1 418.1084 545.1625)" class="st2 st3">NA</text>
<circle class="st4" cx="655" cy="29.1" r="6.6"/>
<text transform="matrix(1 0 0 1 663.6144 17.5936)" class="st5 st3">Desogestrel </text>
<text transform="matrix(1 0 0 1 663.6144 29.5936)" class="st2 st3">70%</text>
<circle class="st4" cx="655" cy="66.1" r="7.1"/>
<text transform="matrix(1 0 0 1 664.071 54.6105)" class="st5 st3">Drospirenone</text>
<text transform="matrix(1 0 0 1 664.071 66.6105)" class="st2 st3">80%</text>
<circle class="st4" cx="655" cy="103.1" r="6.6"/>
<text transform="matrix(1 0 0 1 663.6144 91.6274)" class="st5 st3">Gestodene</text>
<text transform="matrix(1 0 0 1 663.6144 103.6274)" class="st2 st3">70%</text>
<circle class="st4" cx="655" cy="140.9" r="7.9"/>
<text transform="matrix(1 0 0 1 664.9057 129.4446)" class="st5 st3">Cyproterone acetate</text>
<text transform="matrix(1 0 0 1 664.9057 141.4446)" class="st2 st3">100%</text>
<circle class="st4" cx="655" cy="180.7" r="8.7"/>
<text transform="matrix(1 0 0 1 665.6603 169.2234)" class="st5 st3">Desogestrel </text>
<text transform="matrix(1 0 0 1 665.6603 181.2234)" class="st2 st3">120%</text>
<circle class="st4" cx="655" cy="220.1" r="7.5"/>
<text transform="matrix(1 0 0 1 664.5 208.6132)" class="st5 st3">Drospirenone</text>
<text transform="matrix(1 0 0 1 664.5 220.6132)" class="st2 st3">90%</text>
<circle class="st4" cx="655" cy="258.4" r="7.5"/>
<text transform="matrix(1 0 0 1 664.5 246.8906)" class="st5 st3">Gestodene </text>
<text transform="matrix(1 0 0 1 664.5 258.8906)" class="st2 st3">90%</text>
<circle class="st4" cx="655" cy="295.8" r="6.6"/>
<text transform="matrix(1 0 0 1 663.6144 284.3188)" class="st5 st3">Levonorgestrel </text>
<text transform="matrix(1 0 0 1 663.6144 296.3188)" class="st2 st3">70%</text>
<circle class="st4" cx="655" cy="330.8" r="5"/>
<text transform="matrix(1 0 0 1 662 319.3499)" class="st5 st3">Norethisterone </text>
<text transform="matrix(1 0 0 1 662 331.3499)" class="st2 st3">40%</text>
<circle class="st4" cx="655" cy="366.7" r="7.5"/>
<text transform="matrix(1 0 0 1 664.5 355.2303)" class="st5 st3">Norgestimate </text>
<text transform="matrix(1 0 0 1 664.5 367.2303)" class="st2 st3">90%</text>
<circle class="st4" cx="655" cy="406.8" r="9.4"/>
<text transform="matrix(1 0 0 1 666.3541 395.2854)" class="st5 st3">Levonorgestrel</text>
<text transform="matrix(1 0 0 1 666.3541 407.2854)" class="st2 st3">140%</text>
<circle class="st4" cx="655" cy="449.2" r="10"/>
<text transform="matrix(1 0 0 1 667 437.7375)" class="st5 st3">Norethisterone</text>
<text transform="matrix(1 0 0 1 667 449.7375)" class="st2 st3">160%</text>
<circle class="st4" cx="655" cy="490.3" r="7.9"/>
<text transform="matrix(1 0 0 1 664.9057 478.8008)" class="st5 st3">Dienogest</text>
<text transform="matrix(1 0 0 1 664.9057 490.8008)" class="st2 st3">100%</text>
<circle class="st4" cx="655" cy="530.4" r="9"/>
<text transform="matrix(1 0 0 1 666.0139 518.9186)" class="st5 st3">Desogestrel </text>
<text transform="matrix(1 0 0 1 666.0139 530.9186)" class="st2 st3">130%</text>
<circle class="st4" cx="655" cy="570.9" r="8.3"/>
<text transform="matrix(1 0 0 1 665.2916 559.4064)" class="st5 st3">Norethisterone</text>
<text transform="matrix(1 0 0 1 665.2916 571.4064)" class="st2 st3">110%</text>
<text transform="matrix(1 0 0 1 10.162 19.3409)" class="st2 st6">Size of orange dots indicates increased risk (%) of first use of antidepressants</text>
<text transform="matrix(1 0 0 1 10.162 37.3409)" class="st2 st6">among adolescents </text>
</svg>
