<?xml version="1.0" encoding="utf-8"?>
<!-- Generator: Adobe Illustrator 26.5.0, SVG Export Plug-In . SVG Version: 6.00 Build 0)  -->
<svg version="1.1" id="Layer_1" xmlns="http://www.w3.org/2000/svg" xmlns:xlink="http://www.w3.org/1999/xlink" x="0px" y="0px"
	 viewBox="0 0 805 600" style="enable-background:new 0 0 805 600;" xml:space="preserve">
<style type="text/css">
	.st0{fill:#FFFFFF;}
	.st1{fill:none;stroke:#CCCCCC;}
	.st2{font-family:'ArialMT';}
	.st3{font-size:10px;}
	.st4{fill:#D0021B;}
	.st5{font-family:'Arial-BoldMT';}
	.st6{enable-background:new    ;}
	.st7{font-size:15px;}
</style>
<rect id="backgorund" class="st0" width="805" height="600"/>
<path class="st1" d="M10,396.3c107.5,0,107.5-138.4,215-138.4"/>
<path class="st1" d="M10,396.3c107.5,0,107.5,138.4,215,138.4"/>
<path class="st1" d="M225,257.9c107.5,0,107.5-197.6,215-197.6"/>
<path class="st1" d="M225,257.9c107.5,0,107.5-27.3,215-27.3"/>
<path class="st1" d="M225,257.9c107.5,0,107.5,133.9,215,133.9"/>
<path class="st1" d="M225,257.9c107.5,0,107.5,197.6,215,197.6"/>
<path class="st1" d="M225,534.7c107.5,0,107.5,0,215,0"/>
<path class="st1" d="M440,60.3c107.5,0,107.5-33.5,215-33.5"/>
<path class="st1" d="M440,60.3c107.5,0,107.5,0,215,0"/>
<path class="st1" d="M440,60.3c107.5,0,107.5,33.5,215,33.5"/>
<path class="st1" d="M440,230.5c107.5,0,107.5-102.1,215-102.1"/>
<path class="st1" d="M440,230.5c107.5,0,107.5-64.7,215-64.7"/>
<path class="st1" d="M440,230.5c107.5,0,107.5-27.4,215-27.4"/>
<path class="st1" d="M440,230.5c107.5,0,107.5,8.7,215,8.7"/>
<path class="st1" d="M440,230.5c107.5,0,107.5,43.8,215,43.8"/>
<path class="st1" d="M440,230.5c107.5,0,107.5,73.7,215,73.7"/>
<path class="st1" d="M440,230.5c107.5,0,107.5,102.1,215,102.1"/>
<path class="st1" d="M440,391.8c107.5,0,107.5-21.2,215-21.2"/>
<path class="st1" d="M440,391.8c107.5,0,107.5,21.2,215,21.2"/>
<path class="st1" d="M440,455.5c107.5,0,107.5,0,215,0"/>
<path class="st1" d="M440,534.7c107.5,0,107.5-38.6,215-38.6"/>
<path class="st1" d="M440,534.7c107.5,0,107.5,0.6,215,0.6"/>
<path class="st1" d="M440,534.7c107.5,0,107.5,38.6,215,38.6"/>
<text transform="matrix(1 0 0 1 140.8525 252.3799)" class="st2 st3">Combination pills</text>
<text transform="matrix(1 0 0 1 133.0742 529.1196)" class="st2 st3">Progestin-only pills</text>
<text transform="matrix(1 0 0 1 330.6279 54.7286)" class="st2 st3">Ethinyl estradiol, 20 μg</text>
<text transform="matrix(1 0 0 1 316.1748 224.9863)" class="st2 st3">Ethinyl estradiol, 30-40 μg</text>
<text transform="matrix(1 0 0 1 330.6279 386.2537)" class="st2 st3">Ethinyl estradiol, 50 μg</text>
<text transform="matrix(1 0 0 1 358.0693 449.9267)" class="st2 st3">Natural estrogen</text>
<text transform="matrix(1 0 0 1 418.1084 529.1719)" class="st2 st3">NA</text>
<circle class="st4" cx="655" cy="26.8" r="3.8"/>
<text transform="matrix(1 0 0 1 660.7797 15.2603)" class="st5 st3">Desogestrel </text>
<text transform="matrix(1 0 0 1 660.7797 27.2603)" class="st2 st3">10%</text>
<circle class="st4" cx="655" cy="60.3" r="5.3"/>
<text transform="matrix(1 0 0 1 662.3452 48.7809)" class="st5 st3">Drospirenone</text>
<text transform="matrix(1 0 0 1 662.3452 60.7809)" class="st2 st3">20%</text>
<circle class="st4" cx="655" cy="93.8" r="3.8"/>
<text transform="matrix(1 0 0 1 660.7797 82.3015)" class="st5 st3">Gestodene</text>
<text transform="matrix(1 0 0 1 660.7797 94.3015)" class="st2 st3">10%</text>
<circle class="st4" cx="655" cy="128.5" r="6.5"/>
<text transform="matrix(1 0 0 1 663.5465 116.972)" class="st5 st3">Cyproterone acetate</text>
<text transform="matrix(1 0 0 1 663.5465 128.972)" class="st2 st3">30%</text>
<circle class="st4" cx="655" cy="165.8" r="6.5"/>
<text transform="matrix(1 0 0 1 663.5465 154.2912)" class="st5 st3">Desogestrel </text>
<text transform="matrix(1 0 0 1 663.5465 166.2912)" class="st2 st3">30%</text>
<circle class="st4" cx="655" cy="203.1" r="6.5"/>
<text transform="matrix(1 0 0 1 663.5465 191.6104)" class="st5 st3">Drospirenone</text>
<text transform="matrix(1 0 0 1 663.5465 203.6104)" class="st2 st3">30%</text>
<circle class="st4" cx="655" cy="239.3" r="5.3"/>
<text transform="matrix(1 0 0 1 662.3452 227.7797)" class="st5 st3">Gestodene </text>
<text transform="matrix(1 0 0 1 662.3452 239.7797)" class="st2 st3">20%</text>
<circle class="st4" cx="655" cy="274.3" r="5.3"/>
<text transform="matrix(1 0 0 1 662.3452 262.799)" class="st5 st3">Levonorgestrel </text>
<text transform="matrix(1 0 0 1 662.3452 274.799)" class="st2 st3">20%</text>
<polygon class="st4" points="655,304.2 655,304.2 655,304.2 "/>
<text transform="matrix(1 0 0 1 657 292.7014)" class="st5 st3">Norethisterone </text>
<text transform="matrix(1 0 0 1 657 304.7014)" class="st2 st3">0%</text>
<circle class="st4" cx="655" cy="332.6" r="3.8"/>
<text transform="matrix(1 0 0 1 660.7797 321.1052)" class="st5 st3">Norgestimate </text>
<text transform="matrix(1 0 0 1 660.7797 333.1052)" class="st2 st3">10%</text>
<circle class="st4" cx="655" cy="370.6" r="10"/>
<text transform="matrix(1 0 0 1 667 359.0816)" class="st5 st3">Levonorgestrel</text>
<text transform="matrix(1 0 0 1 667 371.0816)" class="st2 st3">70%</text>
<circle class="st4" cx="655" cy="413" r="8.5"/>
<text transform="matrix(1 0 0 1 665.4515 401.5303)" class="st5 st3">Norethisterone</text>
<text transform="matrix(1 0 0 1 665.4515 413.5303)" class="st2 st3">50%</text>
<circle class="st4" cx="655" cy="455.5" r="10"/>
<text transform="matrix(1 0 0 1 667 443.979)" class="st5 st3">Dienogest</text>
<text transform="matrix(1 0 0 1 667 455.979)" class="st2 st3">70%</text>
<circle class="st4" cx="655" cy="496.1" r="6.5"/>
<text transform="matrix(1 0 0 1 663.5465 484.6041)" class="st5 st3">Desogestrel </text>
<text transform="matrix(1 0 0 1 663.5465 496.6041)" class="st2 st3">30%</text>
<circle class="st4" cx="655" cy="535.2" r="8.5"/>
<text transform="matrix(1 0 0 1 665.4515 523.7469)" class="st5 st3">Levonorgestrel</text>
<text transform="matrix(1 0 0 1 665.4515 535.7469)" class="st2 st3">50%</text>
<circle class="st4" cx="655" cy="573.2" r="5.3"/>
<text transform="matrix(1 0 0 1 662.3452 561.7397)" class="st5 st3">Norethisterone</text>
<text transform="matrix(1 0 0 1 662.3452 573.7397)" class="st2 st3">20%</text>
<text transform="matrix(1 0 0 1 14.6213 27.6675)" class="st6"><tspan x="0" y="0" class="st2 st7">Size of red dots indicates increased risk (%) of first use of antidepressant </tspan><tspan x="0" y="18" class="st2 st7">among all women</tspan></text>
</svg>
