<?xml version="1.0" encoding="utf-8"?>
<!-- Generator: Adobe Illustrator 26.5.0, SVG Export Plug-In . SVG Version: 6.00 Build 0)  -->
<svg version="1.1" id="Layer_1" xmlns="http://www.w3.org/2000/svg" xmlns:xlink="http://www.w3.org/1999/xlink" x="0px" y="0px"
	 viewBox="0 0 805 600" style="enable-background:new 0 0 805 600;" xml:space="preserve">
<style type="text/css">
	.st0{fill:#FFFFFF;}
	.st1{fill:none;stroke:#CCCCCC;}
	.st2{font-family:'ArialMT';}
	.st3{font-size:10px;}
	.st4{fill:#D0021B;}
	.st5{font-family:'Arial-BoldMT';}
	.st6{enable-background:new    ;}
	.st7{font-size:15px;}
</style>
<rect id="backgorund" class="st0" width="805" height="600"/>
<path class="st1" d="M10,396.6c107.5,0,107.5-139.8,215-139.8"/>
<path class="st1" d="M10,396.6c107.5,0,107.5,139.8,215,139.8"/>
<path class="st1" d="M225,256.8c107.5,0,107.5-196.6,215-196.6"/>
<path class="st1" d="M225,256.8c107.5,0,107.5-28.5,215-28.5"/>
<path class="st1" d="M225,256.8c107.5,0,107.5,129.2,215,129.2"/>
<path class="st1" d="M225,256.8c107.5,0,107.5,196.6,215,196.6"/>
<path class="st1" d="M225,536.4c107.5,0,107.5,0,215,0"/>
<path class="st1" d="M440,60.2c107.5,0,107.5-35,215-35"/>
<path class="st1" d="M440,60.2c107.5,0,107.5,0,215,0"/>
<path class="st1" d="M440,60.2c107.5,0,107.5,35,215,35"/>
<path class="st1" d="M440,228.3c107.5,0,107.5-98,215-98"/>
<path class="st1" d="M440,228.3c107.5,0,107.5-59.6,215-59.6"/>
<path class="st1" d="M440,228.3c107.5,0,107.5-21.2,215-21.2"/>
<path class="st1" d="M440,228.3c107.5,0,107.5,13.8,215,13.8"/>
<path class="st1" d="M440,228.3c107.5,0,107.5,44.1,215,44.1"/>
<path class="st1" d="M440,228.3c107.5,0,107.5,71.1,215,71.1"/>
<path class="st1" d="M440,228.3c107.5,0,107.5,98,215,98"/>
<path class="st1" d="M440,386c107.5,0,107.5-21.8,215-21.8"/>
<path class="st1" d="M440,386c107.5,0,107.5,21.8,215,21.8"/>
<path class="st1" d="M440,453.4c107.5,0,107.5,0,215,0"/>
<path class="st1" d="M440,536.4c107.5,0,107.5-38.5,215-38.5"/>
<path class="st1" d="M440,536.4c107.5,0,107.5,2.4,215,2.4"/>
<path class="st1" d="M440,536.4c107.5,0,107.5,38.5,215,38.5"/>
<text transform="matrix(1 0 0 1 140.8525 251.2797)" class="st2 st3">Combination pills</text>
<text transform="matrix(1 0 0 1 133.0742 530.812)" class="st2 st3">Progestin-only pills</text>
<text transform="matrix(1 0 0 1 330.6279 54.6492)" class="st2 st3">Ethinyl estradiol, 20 μg</text>
<text transform="matrix(1 0 0 1 316.1748 222.777)" class="st2 st3">Ethinyl estradiol, 30-40 μg</text>
<text transform="matrix(1 0 0 1 330.6279 380.4138)" class="st2 st3">Ethinyl estradiol, 50 μg</text>
<text transform="matrix(1 0 0 1 358.0693 447.8058)" class="st2 st3">Natural estrogen</text>
<text transform="matrix(1 0 0 1 418.1084 530.8643)" class="st2 st3">NA</text>
<polygon class="st4" points="655,25.2 655,25.2 655,25.2 "/>
<text transform="matrix(1 0 0 1 657 13.6542)" class="st5 st3">Desogestrel </text>
<text transform="matrix(1 0 0 1 657 25.6542)" class="st2 st3">0%</text>
<circle class="st4" cx="655" cy="60.2" r="5"/>
<text transform="matrix(1 0 0 1 662 48.7014)" class="st5 st3">Drospirenone</text>
<text transform="matrix(1 0 0 1 662 60.7014)" class="st2 st3">20%</text>
<polygon class="st4" points="655,95.2 655,95.2 655,95.2 "/>
<text transform="matrix(1 0 0 1 657 83.7486)" class="st5 st3">Gestodene</text>
<text transform="matrix(1 0 0 1 657 95.7486)" class="st2 st3">0%</text>
<circle class="st4" cx="655" cy="130.3" r="5"/>
<text transform="matrix(1 0 0 1 662 118.7958)" class="st5 st3">Cyproterone acetate</text>
<text transform="matrix(1 0 0 1 662 130.7958)" class="st2 st3">20%</text>
<circle class="st4" cx="655" cy="168.7" r="3.5"/>
<text transform="matrix(1 0 0 1 660.5355 157.1937)" class="st5 st3">Desogestrel </text>
<text transform="matrix(1 0 0 1 660.5355 169.1937)" class="st2 st3">10%</text>
<circle class="st4" cx="655" cy="207.1" r="5"/>
<text transform="matrix(1 0 0 1 662 195.5917)" class="st5 st3">Drospirenone</text>
<text transform="matrix(1 0 0 1 662 207.5917)" class="st2 st3">20%</text>
<polygon class="st4" points="655,242.1 655,242.1 655,242.1 "/>
<text transform="matrix(1 0 0 1 657 230.6389)" class="st5 st3">Gestodene </text>
<text transform="matrix(1 0 0 1 657 242.6389)" class="st2 st3">0%</text>
<polygon class="st4" points="655,272.4 655,272.4 655,272.4 "/>
<text transform="matrix(1 0 0 1 657 260.9473)" class="st5 st3">Levonorgestrel </text>
<text transform="matrix(1 0 0 1 657 272.9473)" class="st2 st3">0%</text>
<polygon class="st4" points="655,299.4 655,299.4 655,299.4 "/>
<text transform="matrix(1 0 0 1 653.4645 287.905)" class="st5 st3">Norethisterone </text>
<text transform="matrix(1 0 0 1 653.4645 299.905)" class="st2 st3">-10%</text>
<polygon class="st4" points="655,326.4 655,326.4 655,326.4 "/>
<text transform="matrix(1 0 0 1 657 314.8627)" class="st5 st3">Norgestimate </text>
<text transform="matrix(1 0 0 1 657 326.8627)" class="st2 st3">0%</text>
<circle class="st4" cx="655" cy="364.2" r="7.9"/>
<text transform="matrix(1 0 0 1 664.9057 352.6637)" class="st5 st3">Levonorgestrel</text>
<text transform="matrix(1 0 0 1 664.9057 364.6637)" class="st2 st3">50%</text>
<circle class="st4" cx="655" cy="407.8" r="6.1"/>
<text transform="matrix(1 0 0 1 663.1237 396.2685)" class="st5 st3">Norethisterone</text>
<text transform="matrix(1 0 0 1 663.1237 408.2685)" class="st2 st3">30%</text>
<circle class="st4" cx="655" cy="453.4" r="10"/>
<text transform="matrix(1 0 0 1 667 441.8581)" class="st5 st3">Dienogest</text>
<text transform="matrix(1 0 0 1 667 453.8581)" class="st2 st3">80%</text>
<circle class="st4" cx="655" cy="497.9" r="5"/>
<text transform="matrix(1 0 0 1 662 486.3827)" class="st5 st3">Desogestrel </text>
<text transform="matrix(1 0 0 1 662 498.3827)" class="st2 st3">20%</text>
<circle class="st4" cx="655" cy="538.7" r="6.1"/>
<text transform="matrix(1 0 0 1 663.1237 527.2336)" class="st5 st3">Levonorgestrel</text>
<text transform="matrix(1 0 0 1 663.1237 539.2336)" class="st2 st3">30%</text>
<polygon class="st4" points="655,574.8 655,574.8 655,574.8 "/>
<text transform="matrix(1 0 0 1 657 563.3458)" class="st5 st3">Norethisterone</text>
<text transform="matrix(1 0 0 1 657 575.3458)" class="st2 st3">0%</text>
<text transform="matrix(1 0 0 1 8.8649 24.0005)" class="st6"><tspan x="0" y="0" class="st2 st7">Size of red dots indicates increased risk (%) of first diagnosis of depression </tspan><tspan x="0" y="18" class="st2 st7">among all women</tspan></text>
</svg>
