<?xml version="1.0" encoding="utf-8"?>
<!-- Generator: Adobe Illustrator 26.5.0, SVG Export Plug-In . SVG Version: 6.00 Build 0)  -->
<svg version="1.1" id="Layer_1" xmlns="http://www.w3.org/2000/svg" xmlns:xlink="http://www.w3.org/1999/xlink" x="0px" y="0px"
	 viewBox="0 0 805 600" style="enable-background:new 0 0 805 600;" xml:space="preserve">
<style type="text/css">
	.st0{fill:none;stroke:#CCCCCC;}
	.st1{font-family:'ArialMT';}
	.st2{font-size:10px;}
	.st3{fill:#D0021B;}
	.st4{font-family:'Arial-BoldMT';}
	.st5{font-size:15px;}
</style>
<path class="st0" d="M10,396.3c107.5,0,107.5-138.4,215-138.4"/>
<path class="st0" d="M10,396.3c107.5,0,107.5,138.4,215,138.4"/>
<path class="st0" d="M225,257.9c107.5,0,107.5-197.6,215-197.6"/>
<path class="st0" d="M225,257.9c107.5,0,107.5-27.3,215-27.3"/>
<path class="st0" d="M225,257.9c107.5,0,107.5,133.9,215,133.9"/>
<path class="st0" d="M225,257.9c107.5,0,107.5,197.6,215,197.6"/>
<path class="st0" d="M225,534.7c107.5,0,107.5,0,215,0"/>
<path class="st0" d="M440,60.3c107.5,0,107.5-33.5,215-33.5"/>
<path class="st0" d="M440,60.3c107.5,0,107.5,0,215,0"/>
<path class="st0" d="M440,60.3c107.5,0,107.5,33.5,215,33.5"/>
<path class="st0" d="M440,230.5c107.5,0,107.5-102.1,215-102.1"/>
<path class="st0" d="M440,230.5c107.5,0,107.5-64.7,215-64.7"/>
<path class="st0" d="M440,230.5c107.5,0,107.5-27.4,215-27.4"/>
<path class="st0" d="M440,230.5c107.5,0,107.5,8.7,215,8.7"/>
<path class="st0" d="M440,230.5c107.5,0,107.5,43.8,215,43.8"/>
<path class="st0" d="M440,230.5c107.5,0,107.5,73.7,215,73.7"/>
<path class="st0" d="M440,230.5c107.5,0,107.5,102.1,215,102.1"/>
<path class="st0" d="M440,391.8c107.5,0,107.5-21.2,215-21.2"/>
<path class="st0" d="M440,391.8c107.5,0,107.5,21.2,215,21.2"/>
<path class="st0" d="M440,455.5c107.5,0,107.5,0,215,0"/>
<path class="st0" d="M440,534.7c107.5,0,107.5-38.6,215-38.6"/>
<path class="st0" d="M440,534.7c107.5,0,107.5,0.6,215,0.6"/>
<path class="st0" d="M440,534.7c107.5,0,107.5,38.6,215,38.6"/>
<text transform="matrix(1 0 0 1 140.8525 252.3799)" class="st1 st2">Combination pills</text>
<text transform="matrix(1 0 0 1 133.0742 529.1196)" class="st1 st2">Progestin-only pills</text>
<text transform="matrix(1 0 0 1 330.6279 54.7286)" class="st1 st2">Ethinyl estradiol, 20 μg</text>
<text transform="matrix(1 0 0 1 316.1748 224.9863)" class="st1 st2">Ethinyl estradiol, 30-40 μg</text>
<text transform="matrix(1 0 0 1 330.6279 386.2537)" class="st1 st2">Ethinyl estradiol, 50 μg</text>
<text transform="matrix(1 0 0 1 358.0693 449.9267)" class="st1 st2">Natural estrogen</text>
<text transform="matrix(1 0 0 1 418.1084 529.1719)" class="st1 st2">NA</text>
<path class="st3" d="M655,304.2L655,304.2L655,304.2z"/>
<g>
	<text transform="matrix(1 0 0 1 669.7797 25.2603)" class="st4 st2">Desogestrel </text>
	<text transform="matrix(1 0 0 1 669.7797 37.2603)" class="st1 st2">10%</text>
	<text transform="matrix(1 0 0 1 671.3452 58.7809)" class="st4 st2">Drospirenone</text>
	<text transform="matrix(1 0 0 1 671.3452 70.7809)" class="st1 st2">20%</text>
	<text transform="matrix(1 0 0 1 669.7797 92.3015)" class="st4 st2">Gestodene</text>
	<text transform="matrix(1 0 0 1 669.7797 104.3015)" class="st1 st2">10%</text>
	<text transform="matrix(1 0 0 1 672.5465 126.972)" class="st4 st2">Cyproterone acetate</text>
	<text transform="matrix(1 0 0 1 672.5465 138.972)" class="st1 st2">30%</text>
	<text transform="matrix(1 0 0 1 672.5465 164.2912)" class="st4 st2">Desogestrel </text>
	<text transform="matrix(1 0 0 1 672.5465 176.2912)" class="st1 st2">30%</text>
	<text transform="matrix(1 0 0 1 672.5465 201.6104)" class="st4 st2">Drospirenone</text>
	<text transform="matrix(1 0 0 1 672.5465 213.6104)" class="st1 st2">30%</text>
	<text transform="matrix(1 0 0 1 671.3452 237.7797)" class="st4 st2">Gestodene </text>
	<text transform="matrix(1 0 0 1 671.3452 249.7797)" class="st1 st2">20%</text>
	<text transform="matrix(1 0 0 1 671.3452 272.799)" class="st4 st2">Levonorgestrel </text>
	<text transform="matrix(1 0 0 1 671.3452 284.799)" class="st1 st2">20%</text>
	<text transform="matrix(1 0 0 1 666 302.7014)" class="st4 st2">Norethisterone </text>
	<text transform="matrix(1 0 0 1 666 314.7014)" class="st1 st2">0%</text>
	<text transform="matrix(1 0 0 1 669.7797 331.1052)" class="st4 st2">Norgestimate </text>
	<text transform="matrix(1 0 0 1 669.7797 343.1052)" class="st1 st2">10%</text>
	<text transform="matrix(1 0 0 1 676 369.0816)" class="st4 st2">Levonorgestrel</text>
	<text transform="matrix(1 0 0 1 676 381.0816)" class="st1 st2">70%</text>
	<text transform="matrix(1 0 0 1 674.4515 411.5303)" class="st4 st2">Norethisterone</text>
	<text transform="matrix(1 0 0 1 674.4515 423.5303)" class="st1 st2">50%</text>
	<text transform="matrix(1 0 0 1 676 453.979)" class="st4 st2">Dienogest</text>
	<text transform="matrix(1 0 0 1 676 465.979)" class="st1 st2">70%</text>
	<text transform="matrix(1 0 0 1 672.5465 494.6041)" class="st4 st2">Desogestrel </text>
	<text transform="matrix(1 0 0 1 672.5465 506.6041)" class="st1 st2">30%</text>
	<text transform="matrix(1 0 0 1 674.4515 533.7469)" class="st4 st2">Levonorgestrel</text>
	<text transform="matrix(1 0 0 1 674.4515 545.7469)" class="st1 st2">50%</text>
	<text transform="matrix(1 0 0 1 671.3452 571.7397)" class="st4 st2">Norethisterone</text>
	<text transform="matrix(1 0 0 1 671.3452 583.7397)" class="st1 st2">20%</text>
</g>
<text transform="matrix(1 0 0 1 14.6213 27.6675)" class="st1 st5">Size of red dots indicates increased risk (%) of first use of antidepressant </text>
<text transform="matrix(1 0 0 1 14.6213 45.6675)" class="st1 st5">among all women</text>
<circle class="st3" cx="654" cy="25.6" r="3.6"/>
<circle class="st3" cx="654" cy="94" r="3.6"/>
<circle class="st3" cx="655" cy="333" r="3.6"/>
<circle class="st3" cx="653" cy="59" r="5.4"/>
<circle class="st3" cx="653.4" cy="240" r="5.4"/>
<circle class="st3" cx="654" cy="274" r="5.4"/>
<circle class="st3" cx="653.6" cy="574" r="5.4"/>
<circle class="st3" cx="655" cy="128.2" r="7.2"/>
<circle class="st3" cx="656" cy="165" r="7.2"/>
<circle class="st3" cx="656" cy="202.8" r="7.2"/>
<circle class="st3" cx="655" cy="497" r="7.2"/>
<circle class="st3" cx="658" cy="412" r="12.6"/>
<circle class="st3" cx="656.3" cy="538.9" r="12.6"/>
<circle class="st3" cx="659" cy="372" r="14.4"/>
<circle class="st3" cx="659" cy="456.5" r="14.4"/>
</svg>
